PathFileType	4	(x/y/z)	A01_PREF_T0018.trc
DataRate	CameraRate	NumFrames	NumMarkers	Units	OrigDataRate	OrigDataStartFrame	OrigNumFrames
240	240	11	48	mm	240	156	310
Frame#	Time	TOP_HEAD			R_AC			L_AC			R_ASIS			L_ASIS			R_PSIS			L_PSIS			SACRAL			L_IC			R_IC			L_GT			R_GT			R_LAT_KNEE			R_MED_KNEE			L_MED_KNEE			L_LAT_KNEE			R_TOE			L_TOE			R_1ST_MET			L_1ST_MET			L_5TH_MET			R_5TH_MET			R_LAT_ANK			R_MED_ANK			L_MED_ANK			L_LAT_ANK			L_HEEL_SUP			R_HEEL_SUP			L_HEEL_LAT			R_HEEL_LAT			L_HEEL_MED			R_HEEL_MED			R_LL_PROX_POST			R_LL_PROX_ANT			R_LL_DIST_ANT			R_LL_DIST_POST			R_THIGH_PROX_POST			R_THIGH_PROX_ANT			R_THIGH_DIST_ANT			R_THIGH_DIST_POST			L_PROS_PROX_ANT			L_PROS_PROX_POST			L_PROS_DIST_POST			L_PROS_DIST_ANT			L_THIGH_PROX_ANT			L_THIGH_PROX_POST			L_THIGH_DIST_POST			L_THIGH_DIST_ANT			
		X1	Y1	Z1	X2	Y2	Z2	X3	Y3	Z3	X4	Y4	Z4	X5	Y5	Z5	X6	Y6	Z6	X7	Y7	Z7	X8	Y8	Z8	X9	Y9	Z9	X10	Y10	Z10	X11	Y11	Z11	X12	Y12	Z12	X13	Y13	Z13	X14	Y14	Z14	X15	Y15	Z15	X16	Y16	Z16	X17	Y17	Z17	X18	Y18	Z18	X19	Y19	Z19	X20	Y20	Z20	X21	Y21	Z21	X22	Y22	Z22	X23	Y23	Z23	X24	Y24	Z24	X25	Y25	Z25	X26	Y26	Z26	X27	Y27	Z27	X28	Y28	Z28	X29	Y29	Z29	X30	Y30	Z30	X31	Y31	Z31	X32	Y32	Z32	X33	Y33	Z33	X34	Y34	Z34	X35	Y35	Z35	X36	Y36	Z36	X37	Y37	Z37	X38	Y38	Z38	X39	Y39	Z39	X40	Y40	Z40	X41	Y41	Z41	X42	Y42	Z42	X43	Y43	Z43	X44	Y44	Z44	X45	Y45	Z45	X46	Y46	Z46	X47	Y47	Z47	X48	Y48	Z48	

156	0.64792	261.75	1716.9	325.05	37.549	1540.8	561.42	12.944	1536.7	111.35	34.183	1061	543.41	0.60581	995.81	192.09	-190.95	1059.6	445.3	-193.88	1072	313.79	-210.25	1037.7	378.66	-23.4	1124.8	154.25	-4.8924	1166.2	554.71	-81.377	929.86	159.24	-11.927	948.66	592.85	108.33	558.97	529.23	127.73	563.87	394.96	-158.88	530.73	378.14	-179.94	547.93	222.52	497.58	211.39	458.69	-215.34	70.025	267.17	441.6	148.83	410.04	-296.43	57.291	325.65	-332.3	53.657	200.56	417.75	127.5	540.22	284.51	121.24	511.82	292.08	133.18	409.72	-388.32	156.53	318.15	-423.37	162.57	251.28	-527.26	130.71	292.96	220.1	42.827	450.45	-525.73	100.38	261.33	238.25	26.973	486.66	-512.36	97.03	324.31	245.33	23.821	427.62	91.83	357.28	532.31	158.57	378.47	554.82	193.19	312.15	540.32	142.79	291.19	526.02	-9.0603	800.79	575.25	50.668	840.71	578.29	82.247	755.99	567.69	24.483	718.45	561.75	-174.67	453.35	233.12	-224.57	477.67	224.16	-257.34	424.19	232.92	-205.85	407.2	239.82	-55.365	778.23	194.25	-121.79	801.95	181.03	-129.56	726.6	191.91	-69.399	705.99	204.22
157	0.6521	267.87	1715.9	325.81	44.086	1539.2	562.49	18.997	1535.7	112.48	41.081	1060	543.64	6.5648	994.6	192.36	-184.49	1058.5	446.2	-187.66	1070.8	314.67	-203.84	1036.5	379.58	-17.489	1123.8	154.8	2.05	1164.7	555.39	-75.649	928.81	159.66	-4.8136	947.68	593.22	116.05	558.43	529.22	134.91	563.27	395.11	-153.73	529.67	377.97	-174.77	547.03	222.41	503.25	207.08	456.33	-214.87	69.604	267.09	446.13	145.18	408.31	-295.9	57.485	325.64	-331.9	54.106	200.55	422.76	124.73	538.67	289.62	120.09	511.23	296.63	131.62	408.97	-386.72	157.62	318.1	-421.85	164.02	251.34	-526.04	133.05	293.07	223.48	43.074	450.41	-524.84	102.7	261.45	241.61	27.103	486.56	-511.44	99.271	324.43	248.13	23.476	427.49	98.762	356.98	532.66	165.81	377.81	554.56	199.91	311.3	539.89	149.3	290.61	526.05	-1.5414	800.01	575.56	57.804	840.09	578.46	89.788	755.48	567.7	32.14	717.77	561.99	-170.39	452.41	233.01	-220.07	477.21	224.08	-253.35	424.04	232.86	-202.02	406.58	239.72	-49.955	777.12	194.43	-116.35	801	181.32	-124.37	725.62	192.15	-64.136	704.89	204.3
158	0.65628	274.02	1715	326.56	50.637	1537.6	563.59	25.054	1534.7	113.6	47.952	1059.2	543.9	12.592	993.41	192.67	-178.05	1057.3	447.06	-181.4	1069.6	315.5	-197.41	1035.2	380.46	-11.492	1122.7	155.37	8.9774	1163.3	556.09	-69.83	927.73	160.11	2.2651	946.79	593.62	123.79	557.99	529.23	142.14	562.77	395.27	-148.37	528.58	377.79	-169.38	546.13	222.31	508.7	202.38	454.07	-214.36	69.157	267.01	450.35	141.24	406.68	-295.33	57.702	325.62	-331.47	54.605	200.55	427.4	121.74	537.2	294.36	118.93	510.68	300.85	130.06	408.26	-385.01	158.8	318.05	-420.21	165.59	251.43	-524.7	135.56	293.2	226.43	43.431	450.41	-523.86	105.21	261.6	244.48	27.317	486.49	-510.42	101.69	324.57	250.45	23.217	427.38	105.61	356.84	533.04	172.98	377.25	554.3	206.49	310.52	539.47	155.67	290.13	526.11	5.9845	799.31	575.89	64.934	839.57	578.65	97.329	755.07	567.73	39.804	717.19	562.24	-165.93	451.48	232.9	-215.38	476.76	224	-249.17	423.92	232.81	-198.01	405.96	239.63	-44.423	776.02	194.64	-110.8	800.04	181.62	-119.03	724.62	192.42	-58.728	703.8	204.4
159	0.66046	280.22	1714	327.31	57.2	1536	564.72	31.114	1533.7	114.73	54.786	1058.4	544.18	18.686	992.24	193.02	-171.61	1056.2	447.88	-175.12	1068.4	316.27	-190.96	1034	381.3	-5.4061	1121.7	155.95	15.884	1161.8	556.83	-63.919	926.65	160.57	9.3012	946	594.05	131.55	557.68	529.25	149.38	562.37	395.46	-142.77	527.48	377.62	-163.77	545.22	222.22	513.94	197.34	451.96	-213.82	68.682	266.91	454.28	137.08	405.16	-294.7	57.945	325.62	-331.01	55.158	200.55	431.66	118.56	535.84	298.76	117.77	510.18	304.78	128.5	407.61	-383.2	160.09	318.03	-418.44	167.27	251.53	-523.22	138.26	293.37	228.98	43.891	450.43	-522.77	107.91	261.79	246.92	27.609	486.44	-509.3	104.29	324.74	252.34	23.052	427.31	112.38	356.84	533.44	180.08	376.79	554.06	212.95	309.83	539.07	161.89	289.77	526.19	13.502	798.71	576.23	72.052	839.15	578.86	104.85	754.77	567.77	47.458	716.7	562.5	-161.28	450.54	232.8	-210.47	476.33	223.93	-244.79	423.83	232.77	-193.82	405.35	239.55	-38.765	774.94	194.88	-105.12	799.08	181.95	-113.54	723.61	192.7	-53.167	702.73	204.53
160	0.66464	286.45	1713.1	328.04	63.774	1534.4	565.88	37.177	1532.7	115.85	61.575	1057.7	544.5	24.844	991.09	193.41	-165.2	1055.2	448.65	-168.82	1067.2	316.99	-184.5	1032.8	382.09	0.76754	1120.6	156.55	22.766	1160.4	557.6	-57.915	925.56	161.06	16.287	945.33	594.52	139.32	557.49	529.3	156.62	562.08	395.66	-136.92	526.35	377.46	-157.92	544.3	222.13	518.97	192.04	450.01	-213.26	68.18	266.82	457.94	132.77	403.77	-294.02	58.216	325.62	-330.51	55.773	200.56	435.57	115.23	534.59	302.83	116.63	509.75	308.43	126.99	407.03	-381.26	161.48	318.02	-416.53	169.08	251.66	-521.59	141.15	293.56	231.19	44.446	450.48	-521.56	110.81	262.01	248.97	27.973	486.42	-508.05	107.09	324.95	253.88	22.985	427.27	119.06	357	533.86	187.08	376.45	553.84	219.28	309.23	538.7	167.97	289.53	526.3	20.995	798.22	576.58	79.152	838.84	579.09	112.34	754.57	567.84	55.082	716.33	562.77	-156.41	449.61	232.71	-205.35	475.9	223.87	-240.21	423.78	232.75	-189.43	404.77	239.48	-32.975	773.88	195.15	-99.317	798.11	182.3	-107.89	722.59	193.01	-47.445	701.67	204.68
161	0.66882	292.73	1712.2	328.75	70.355	1532.8	567.07	43.246	1531.7	116.96	68.308	1057.2	544.84	31.065	989.99	193.83	-158.81	1054.2	449.37	-162.49	1066	317.64	-178.05	1031.7	382.83	7.0286	1119.5	157.16	29.616	1159	558.4	-51.82	924.47	161.57	23.215	944.8	595.01	147.08	557.43	529.37	163.83	561.92	395.87	-130.82	525.2	377.31	-151.82	543.38	222.06	523.78	186.55	448.26	-212.65	67.649	266.72	461.35	128.37	402.53	-293.29	58.52	325.63	-329.97	56.455	200.58	439.14	111.8	533.48	306.6	115.53	509.38	311.83	125.53	406.53	-379.18	163.01	318.03	-414.47	171.02	251.81	-519.79	144.25	293.79	233.1	45.086	450.55	-520.23	113.94	262.26	250.68	28.398	486.42	-506.66	110.1	325.19	255.1	23.02	427.26	125.65	357.31	534.31	194	376.21	553.66	225.48	308.72	538.37	173.91	289.42	526.46	28.451	797.85	576.96	86.228	838.65	579.33	119.78	754.49	567.93	62.662	716.07	563.07	-151.32	448.69	232.62	-199.98	475.5	223.82	-235.4	423.76	232.74	-184.83	404.21	239.42	-27.049	772.85	195.45	-93.388	797.14	182.68	-102.07	721.57	193.32	-41.556	700.62	204.86
162	0.673	299.06	1711.4	329.45	76.942	1531.2	568.28	49.322	1530.8	118.05	74.976	1056.8	545.21	37.344	988.92	194.3	-152.46	1053.3	450.03	-156.15	1064.8	318.22	-171.59	1030.6	383.52	13.376	1118.5	157.78	36.432	1157.6	559.24	-45.634	923.38	162.11	30.08	944.4	595.53	154.84	557.51	529.48	171.01	561.89	396.11	-124.45	524.03	377.17	-145.45	542.46	221.99	528.35	180.95	446.73	-212.02	67.09	266.62	464.5	123.95	401.46	-292.49	58.858	325.65	-329.38	57.211	200.61	442.39	108.3	532.52	310.07	114.46	509.08	314.99	124.15	406.11	-376.96	164.66	318.06	-412.25	173.11	251.98	-517.81	147.57	294.06	234.75	45.799	450.64	-518.75	117.3	262.56	252.09	28.875	486.44	-505.13	113.33	325.47	256.06	23.155	427.27	132.15	357.78	534.78	200.81	376.09	553.52	231.54	308.33	538.09	179.72	289.45	526.65	35.855	797.61	577.37	93.274	838.58	579.59	127.16	754.52	568.04	70.184	715.93	563.39	-146.01	447.77	232.55	-194.38	475.12	223.79	-230.37	423.78	232.74	-180.01	403.67	239.37	-20.984	771.85	195.78	-87.329	796.16	183.08	-96.083	720.55	193.66	-35.494	699.61	205.07
163	0.67718	305.44	1710.6	330.13	83.534	1529.6	569.52	55.409	1529.9	119.13	81.571	1056.5	545.61	43.677	987.91	194.8	-146.13	1052.5	450.64	-149.79	1063.7	318.72	-165.15	1029.5	384.16	19.806	1117.5	158.42	43.206	1156.3	560.11	-39.357	922.29	162.66	36.875	944.15	596.08	162.58	557.73	529.63	178.12	562	396.36	-117.81	522.84	377.04	-138.82	541.53	221.94	532.68	175.31	445.44	-211.35	66.502	266.51	467.42	119.56	400.56	-291.63	59.236	325.67	-328.75	58.049	200.65	445.34	104.77	531.72	313.26	113.45	508.86	317.93	122.87	405.78	-374.58	166.44	318.11	-409.85	175.34	252.18	-515.63	151.12	294.37	236.19	46.572	450.76	-517.11	120.9	262.9	253.25	29.392	486.48	-503.43	116.8	325.79	256.82	23.387	427.3	138.56	358.39	535.28	207.51	376.09	553.45	237.48	308.03	537.89	185.39	289.61	526.89	43.199	797.5	577.81	100.28	838.64	579.87	134.47	754.68	568.19	77.636	715.92	563.74	-140.45	446.87	232.48	-188.51	474.76	223.77	-225.09	423.85	232.76	-174.97	403.16	239.33	-14.775	770.89	196.15	-81.134	795.19	183.51	-89.915	719.53	194.01	-29.251	698.62	205.3
164	0.68136	311.88	1709.8	330.8	90.128	1528.1	570.77	61.509	1529	120.18	88.084	1056.4	546.03	50.062	986.95	195.35	-139.84	1051.8	451.18	-143.42	1062.6	319.15	-158.72	1028.5	384.73	26.317	1116.5	159.07	49.935	1155	561.02	-32.993	921.21	163.24	43.596	944.07	596.64	170.31	558.08	529.82	185.19	562.24	396.64	-110.89	521.62	376.93	-131.91	540.61	221.89	536.76	169.7	444.4	-210.65	65.887	266.41	470.12	115.26	399.85	-290.71	59.657	325.71	-328.06	58.976	200.71	448.01	101.23	531.08	316.19	112.49	508.72	320.67	121.68	405.55	-372.04	168.37	318.19	-407.26	177.73	252.41	-513.24	154.9	294.72	237.44	47.392	450.89	-515.29	124.75	263.28	254.2	29.941	486.54	-501.56	120.51	326.16	257.4	23.709	427.35	144.86	359.14	535.81	214.09	376.19	553.44	243.26	307.84	537.77	190.91	289.89	527.18	50.474	797.52	578.28	107.25	838.84	580.17	141.7	754.96	568.37	85.008	716.04	564.12	-134.64	445.99	232.42	-182.39	474.43	223.77	-219.55	423.96	232.79	-169.68	402.68	239.3	-8.4193	769.97	196.55	-74.802	794.23	183.96	-83.562	718.52	194.38	-22.823	697.67	205.57
165	0.68554	318.36	1709.1	331.44	96.722	1526.6	572.03	67.626	1528.2	121.21	94.509	1056.4	546.46	56.491	986.05	195.94	-133.59	1051.3	451.65	-137.05	1061.5	319.5	-152.3	1027.6	385.24	32.903	1115.5	159.74	56.613	1153.8	561.96	-26.542	920.15	163.84	50.239	944.14	597.22	178.01	558.55	530.06	192.19	562.62	396.95	-103.68	520.39	376.83	-124.71	539.68	221.86	540.57	164.18	443.62	-209.92	65.245	266.3	472.6	111.1	399.31	-289.72	60.126	325.76	-327.31	59.999	200.78	450.4	97.731	530.6	318.87	111.58	508.67	323.23	120.61	405.43	-369.31	170.44	318.3	-404.47	180.28	252.68	-510.61	158.93	295.13	238.54	48.245	451.04	-513.29	128.87	263.72	254.97	30.51	486.62	-499.49	124.46	326.57	257.86	24.112	427.41	151.05	360.02	536.37	220.53	376.38	553.51	248.9	307.74	537.74	196.29	290.29	527.53	57.673	797.67	578.79	114.17	839.16	580.49	148.85	755.37	568.59	92.296	716.29	564.53	-128.58	445.12	232.36	-175.99	474.13	223.78	-213.76	424.13	232.84	-164.15	402.24	239.29	-1.9131	769.1	196.98	-68.328	793.27	184.43	-77.021	717.51	194.77	-16.204	696.76	205.87
166	0.68972	324.9	1708.4	332.07	103.32	1525.1	573.31	73.764	1527.5	122.22	100.84	1056.6	546.92	62.961	985.22	196.56	-127.37	1050.8	452.05	-130.66	1060.5	319.78	-145.91	1026.8	385.68	39.558	1114.6	160.42	63.235	1152.7	562.93	-20.008	919.11	164.45	56.798	944.39	597.82	185.67	559.14	530.34	199.14	563.13	397.29	-96.173	519.12	376.74	-117.22	538.76	221.83	544.12	158.79	443.08	-209.14	64.579	266.2	474.88	107.11	398.95	-288.65	60.648	325.82	-326.5	61.126	200.86	452.54	94.28	530.28	321.33	110.73	508.69	325.62	119.65	405.4	-366.39	172.67	318.43	-401.47	182.98	252.97	-507.74	163.2	295.58	239.52	49.118	451.21	-511.08	133.25	264.21	255.6	31.09	486.72	-497.22	128.67	327.04	258.22	24.589	427.49	157.11	361.01	536.95	226.81	376.66	553.67	254.38	307.72	537.82	201.52	290.79	527.93	64.792	797.95	579.34	121.04	839.62	580.84	155.92	755.9	568.85	99.493	716.67	564.97	-122.26	444.27	232.32	-169.31	473.85	223.8	-207.7	424.34	232.9	-158.37	401.83	239.28	4.7461	768.28	197.45	-61.71	792.33	184.92	-70.287	716.52	195.18	-9.3909	695.89	206.2
